<svg width="12" height="12" viewBox="0 0 12 12" fill="none" xmlns="http://www.w3.org/2000/svg">
<path d="M11.5901 5.98877C11.5901 2.878 9.06773 0.357788 5.95907 0.357788C2.84831 0.357788 0.328094 2.878 0.328094 5.98877C0.328094 8.79863 2.38657 11.1284 5.07923 11.5504V7.61682H3.64932V5.98912H5.07923V4.74784C5.07923 3.33693 5.9186 2.55774 7.20528 2.55774C7.82152 2.55774 8.46662 2.66755 8.46662 2.66755V4.05312H7.75536C7.05712 4.05312 6.83891 4.48776 6.83891 4.93296V5.98877H8.40046L8.14953 7.61647H6.83891V11.5501C9.52947 11.1281 11.5901 8.79827 11.5901 5.98842V5.98877Z" fill="white"/>
</svg>
