<svg width="103" height="38" viewBox="0 0 103 38" fill="none" xmlns="http://www.w3.org/2000/svg">
<path fill-rule="evenodd" clip-rule="evenodd" d="M32.3476 0.7749C31.7253 0.90715 31.2286 1.20871 30.7552 1.74179C29.9617 2.63523 30.0144 1.74179 30.0144 14.3115C30.0144 26.606 30.0007 26.2864 30.6095 28.2349C31.2029 30.1342 32.1867 31.8346 33.5258 33.2756C35.876 35.8047 39.0505 37.1615 42.6181 37.1615C44.1235 37.1615 45.3346 36.9718 46.6581 36.5288C50.5329 35.2316 53.3803 32.2976 54.6356 28.3085C55.6127 25.2039 55.4758 21.5337 54.2692 18.4824C52.9332 15.1037 50.2727 12.4998 47.0908 11.4566C45.7878 11.0295 45.0424 10.9179 43.4808 10.9165C40.9216 10.9143 39.0158 11.5049 36.919 12.9503C36.4912 13.2452 36.1212 13.4865 36.0969 13.4865C36.0726 13.4865 36.0527 11.1774 36.0527 8.35516C36.0527 3.79695 36.0345 3.16695 35.8902 2.7146C35.6801 2.05616 34.969 1.25849 34.3527 0.990109C33.8105 0.753942 32.904 0.656719 32.3476 0.7749ZM11.8846 10.8735C6.24008 11.5802 1.75975 15.9133 0.710906 21.6798C0.49228 22.8818 0.498127 25.1781 0.722695 26.3393C1.45199 30.1095 3.46371 33.1757 6.51641 35.17C8.42796 36.4187 10.8733 37.1646 13.0382 37.1592C14.0526 37.1567 14.7143 36.9549 15.3706 36.4482C16.8165 35.3317 17.0326 32.8923 15.8099 31.4863C15.0757 30.6419 14.5113 30.3928 13.0496 30.2679C12.4961 30.2207 11.7941 30.0951 11.4897 29.989C9.54601 29.3116 8.07774 27.7834 7.47353 25.8092C7.1858 24.8688 7.16548 23.1661 7.43126 22.2676C7.9241 20.6018 9.19004 19.0687 10.6588 18.3585C11.6399 17.8843 12.2141 17.7558 13.352 17.7558C15.0305 17.7558 16.2689 18.289 17.5109 19.5462C18.0365 20.0783 18.3923 20.5434 18.6279 21.0062C19.3445 22.4141 19.3131 22.0916 19.3712 28.6715L19.4233 34.5902L19.6783 35.1409C20.0193 35.8773 20.6202 36.5167 21.2787 36.8442C21.7544 37.0807 21.9291 37.113 22.73 37.113C23.5309 37.113 23.7057 37.0807 24.1813 36.8442C24.8399 36.5167 25.4408 35.8773 25.7818 35.1409L26.0367 34.5902L26.0365 28.4774C26.0364 22.4916 26.0319 22.3441 25.8203 21.3761C24.9271 17.2904 22.6087 14.1473 19.0799 12.2381C17.0738 11.1527 14.1238 10.5932 11.8846 10.8735ZM69.6371 10.904C68.0908 11.1611 66.6398 11.7314 65.4315 12.5569C65.0637 12.8082 64.7474 12.9674 64.7287 12.9106C64.3238 11.6807 63.1603 10.9919 61.6384 11.0811C60.3298 11.1578 59.4705 11.7572 59.0538 12.8838C58.8689 13.3837 58.8641 13.6708 58.8641 24.0972C58.8641 36.3216 58.8077 35.4676 59.6725 36.3431C60.2742 36.9522 60.8438 37.1615 61.8996 37.1615C63.1956 37.1615 64.0293 36.679 64.5372 35.635L64.8545 34.9828L64.9024 27.4586L64.9503 19.9345L65.2641 19.2893C65.8549 18.0749 67.2977 17.0771 68.9479 16.7416C69.9912 16.5295 71.6983 16.5499 73.1451 16.7917C74.4185 17.0045 74.8485 16.9872 75.496 16.6973C76.7272 16.146 77.3397 14.4153 76.7525 13.1469C76.4743 12.5458 75.6999 11.8028 75.0264 11.4906C73.7101 10.8805 71.3338 10.6219 69.6371 10.904ZM88.0013 10.8706C85.2155 11.2136 82.7203 12.4004 80.6958 14.3449C78.1675 16.7737 76.7709 19.8923 76.6267 23.432C76.4436 27.9263 78.3784 32.0426 81.9232 34.7008C83.9636 36.2307 86.6835 37.16 89.1239 37.1611C90.3462 37.1617 90.9263 36.9342 91.6998 36.1512C92.1808 35.6643 92.3218 35.4433 92.5023 34.8934C93.0585 33.1994 92.3525 31.4127 90.8266 30.6522C90.327 30.4033 90.0474 30.3368 89.217 30.2696C88.0388 30.1741 87.5767 30.0612 86.8286 29.6861C85.2485 28.8939 84.1859 27.6665 83.5794 25.9329C83.3 25.1342 83.2322 23.4644 83.4425 22.5587C83.9617 20.3225 85.726 18.473 87.879 17.9082C88.6183 17.7143 90.0878 17.7113 90.8326 17.9022C92.7883 18.4032 94.4465 19.9899 95.1442 22.0274L95.4258 22.8498L95.4755 28.7685L95.5252 34.6873L95.793 35.2394C96.1421 35.9589 96.9349 36.6941 97.6581 36.9691C98.7368 37.3791 100.154 37.1021 101.05 36.3061C101.514 35.8929 101.959 35.0105 102.092 34.2359C102.171 33.777 102.19 31.9877 102.159 28.0265C102.111 21.9408 102.1 21.8064 101.505 19.9153C100.617 17.0913 98.7754 14.6055 96.3232 12.9216C95.7066 12.4982 94.3246 11.8096 93.487 11.5084C91.9367 10.9509 89.5774 10.6766 88.0013 10.8706ZM41.3721 17.1331C39.0763 17.6481 37.1964 19.5206 36.5584 21.928C36.3273 22.7999 36.3266 24.9328 36.5572 25.8092C36.8645 26.9775 37.4519 28.0069 38.3026 28.868C39.5859 30.1669 41.0098 30.7576 42.8577 30.7576C44.7045 30.7576 46.1276 30.1675 47.4149 28.868C48.7335 27.5368 49.377 25.8879 49.3737 23.8495C49.3708 22.1483 49.0029 20.9502 48.0826 19.6444C47.308 18.5456 46.2583 17.7727 44.9175 17.314C43.9445 16.9811 42.401 16.9024 41.3721 17.1331Z" fill="#727272"/>
</svg>
