<svg width="54" height="72" viewBox="0 0 54 72" fill="none" xmlns="http://www.w3.org/2000/svg">
<path fill-rule="evenodd" clip-rule="evenodd" d="M22.499 1.02069C14.8865 1.68352 7.44277 3.9236 1.00535 7.48901L0.0725098 8.00569L0.131257 9.59216C0.247466 12.7279 0.585304 15.6574 1.15924 18.5045C1.48749 20.1327 1.584 20.4684 1.92783 21.1775C3.70831 24.8489 7.37751 27.4914 11.459 28.0416C12.4606 28.1767 14.8001 28.1049 15.6829 27.9121C17.0852 27.6058 18.797 26.9247 19.8285 26.2625C21.7548 25.026 23.4278 23.192 24.3987 21.2526C25.1819 19.6884 25.5627 18.177 25.7026 16.0785C25.8865 13.3215 26.0609 12.3231 26.6487 10.6664C27.6896 7.73164 29.764 5.10704 32.469 3.30243C33.0135 2.93918 34.7622 2.0011 34.895 2.0011C34.9181 2.0011 35.1233 1.92026 35.3509 1.82148C35.7208 1.6609 35.7453 1.63434 35.5808 1.57134C35.3471 1.48178 33.835 1.27433 32.1252 1.09735C30.2701 0.905264 24.3647 0.858224 22.499 1.02069ZM39.2528 3.28468C33.6528 3.98721 29.3097 8.0996 28.3012 13.6544C28.0785 14.8811 28.1152 16.7331 28.3884 18.0598C29.132 21.6706 30.926 24.2574 34.0808 26.2684C36.4098 27.7528 37.6712 28.8517 38.8582 30.4301C41.0953 33.4049 42.1665 37.1161 41.8146 40.6725C41.766 41.1642 41.7459 41.5862 41.7701 41.6103C41.7941 41.6344 41.8899 41.5586 41.9827 41.4419C48.5419 33.2 52.4256 23.8062 53.4887 13.6117C53.649 12.0747 53.7904 9.81046 53.7909 8.77233L53.7914 7.98801L53.042 7.56687C49.813 5.75228 45.2841 3.87469 43.112 3.45013C42.0575 3.24404 40.2089 3.16473 39.2528 3.28468ZM25.6168 26.9356C23.9058 27.1241 22.479 27.6026 20.2128 28.7481C17.9515 29.8911 16.1259 30.3861 13.7989 30.4873C10.4002 30.635 7.1051 29.6466 4.36121 27.6561C4.06944 27.4445 3.80046 27.2713 3.76355 27.2713C3.61582 27.2713 4.63662 29.6333 5.71907 31.7961C9.78614 39.9224 15.7836 46.7958 23.3474 51.9994C24.5901 52.8542 26.0685 53.7879 26.6266 54.0702L26.9942 54.2562L27.7399 53.8092C30.9886 51.862 34.456 49.2488 36.8353 46.9548C37.3937 46.4163 37.547 46.1973 38.0095 45.2766C38.5867 44.1279 39.0473 42.8428 39.292 41.6993C39.5136 40.6628 39.5112 38.0271 39.2877 37.0038C39.0306 35.8264 38.7358 34.9764 38.2072 33.8877C36.4531 30.2751 33.093 27.7643 29.0676 27.0583C28.1316 26.8942 26.5157 26.8368 25.6168 26.9356ZM10.4591 58.6933C9.70444 58.8228 8.80748 59.3139 8.09755 59.9862L7.4682 60.5822L7.44354 59.742L7.41896 58.9018H5.1924H2.96584L2.94392 65.2834L2.92191 71.665H5.19189H7.46178L7.46246 68.2714C7.46315 64.5511 7.51402 63.9495 7.87241 63.4265C8.30873 62.7897 9.3189 62.509 10.0615 62.8183C10.4148 62.9655 10.8327 63.4632 10.9608 63.8894C11.0275 64.1116 11.0585 65.3956 11.0585 67.9398V71.665H13.3754H15.6923L15.6646 66.9482L15.637 62.2313L15.4061 61.5483C14.7809 59.6998 13.5532 58.7721 11.5724 58.6516C11.2191 58.6301 10.7181 58.6488 10.4591 58.6933ZM21.7091 58.7314C18.5679 59.2828 16.4537 61.9446 16.4537 65.3474C16.4537 67.9832 17.6423 70.0609 19.7967 71.1908C21.9468 72.3185 25.0198 72.2617 27.041 71.0569C27.5508 70.7531 28.871 69.5753 28.871 69.4245C28.871 69.3759 28.8162 69.2934 28.7492 69.2412C28.6822 69.1892 28.1239 68.7308 27.5085 68.2228L26.3897 67.299L25.9819 67.6333C25.0896 68.3645 24.2737 68.647 23.2907 68.565C22.2306 68.4766 21.4632 67.9738 21.0343 67.0869L20.833 66.6707L25.0876 66.628L29.342 66.5853L29.3664 65.656C29.4559 62.2504 27.6694 59.5899 24.8022 58.8589C23.9159 58.6329 22.583 58.5779 21.7091 58.7314ZM37.7773 58.6947C37.0125 58.8282 36.1605 59.284 35.4807 59.9235L34.8722 60.4956L34.8475 59.6988L34.8228 58.9018L32.5748 58.879L30.3268 58.8563V65.2606V71.665H32.5962H34.8656L34.8661 67.9726C34.8664 65.7625 34.9011 64.1563 34.9526 63.9714C35.1776 63.1641 35.7835 62.7037 36.6212 62.7037C37.2895 62.7037 37.7401 62.9486 38.0339 63.4718L38.2483 63.8534L38.2729 67.7592L38.2976 71.665H40.6033H42.9089L42.9335 67.795L42.9583 63.9251L43.2152 63.5117C43.5844 62.9176 44.0648 62.6783 44.8089 62.7178C45.5011 62.7545 45.9232 63.0313 46.2013 63.6307C46.3775 64.0107 46.3846 64.1548 46.41 67.8446L46.4363 71.665H48.7054H50.9745L50.9452 66.8628C50.9188 62.5102 50.9015 62.0166 50.7612 61.591C50.3708 60.4065 49.6082 59.4794 48.6716 59.0509C48.1919 58.8315 47.1262 58.609 46.555 58.609C45.2707 58.609 43.8732 59.171 42.8558 60.0968C42.2575 60.6411 42.2538 60.6429 42.1606 60.4391C42.0112 60.1122 41.4862 59.5768 41.0268 59.283C40.2062 58.758 38.8356 58.5099 37.7773 58.6947ZM22.1485 62.1776C21.5181 62.4647 20.9661 63.2095 20.8485 63.9318L20.7987 64.2376H22.9547H25.1108L25.0523 63.9174C24.8468 62.7917 23.9978 62.0216 22.9621 62.0216C22.688 62.0216 22.3478 62.0869 22.1485 62.1776Z" fill="#727272"/>
</svg>
