<svg width="115" height="29" viewBox="0 0 115 29" fill="none" xmlns="http://www.w3.org/2000/svg">
<path fill-rule="evenodd" clip-rule="evenodd" d="M10.6231 4.36952L10.6359 8.18663L22.1776 8.19917L33.7193 8.2117V4.38206V0.552414H22.1648H10.6103L10.6231 4.36952ZM41.3887 14.553V28.5536L44.3838 28.5408L47.3789 28.528L47.3916 22.7712L47.4043 17.0145H53.1186H58.8328V14.5526V12.0908H53.1184H47.4039V8.78364V5.47651L53.7324 5.46388L60.061 5.45124L60.0739 3.00183L60.087 0.552414H50.7378H41.3887V14.553ZM63.0054 3.00183L63.0184 5.45124L67.3168 5.46398L71.6152 5.47666V17.0148V28.5528H74.5727H77.5301V17.0148V5.47666L81.8536 5.46398L86.177 5.45124L86.19 3.00183L86.203 0.552414H74.5977H62.9924L63.0054 3.00183ZM88.817 0.593694C88.8262 0.616422 90.7699 3.76142 93.1364 7.58256L97.439 14.5301L97.3433 14.6906C97.2504 14.8465 88.8165 28.2172 88.6699 28.4409L88.5966 28.5528L92.0486 28.5512L95.5006 28.5495L98.3827 23.7767C100.674 19.9817 101.285 19.0039 101.365 19.0041C101.445 19.0044 102.065 19.993 104.352 23.7662L107.238 28.528L110.68 28.5408C112.574 28.5478 114.123 28.5426 114.123 28.5293C114.123 28.5159 112.19 25.4329 109.829 21.678C107.467 17.9232 105.492 14.7808 105.441 14.6949L105.347 14.5388L109.635 7.56938C111.993 3.73621 113.922 0.589118 113.922 0.575838C113.922 0.562559 112.398 0.557487 110.535 0.564499L107.149 0.577281L104.309 5.31448C101.957 9.23911 101.452 10.0517 101.363 10.0517C101.274 10.0517 100.774 9.24304 98.4283 5.30348L95.6008 0.555349L92.2006 0.553857C90.3304 0.553061 88.8078 0.571015 88.817 0.593694ZM0.38501 14.5275V18.3573H4.24507H8.10514L8.0923 14.5402L8.07947 10.7231L4.23224 10.7104L0.38501 10.6976V14.5275ZM10.6445 10.7312C10.626 10.7495 10.6109 12.4729 10.6109 14.5609V18.3573H18.3307H26.0505L26.0377 14.5402L26.0249 10.7231L18.3515 10.7105C14.1311 10.7036 10.6629 10.7129 10.6445 10.7312ZM10.661 24.7233V28.5528H14.4957H18.3304V24.7233V20.8938H14.4957H10.661V24.7233Z" fill="#727272"/>
</svg>
