<svg width="62" height="77" viewBox="0 0 62 77" fill="none" xmlns="http://www.w3.org/2000/svg">
<path fill-rule="evenodd" clip-rule="evenodd" d="M38.6991 4.38731C34.5079 6.81808 31.0906 8.83581 31.105 8.87105C31.1194 8.90636 34.5486 10.914 38.7254 13.3327L46.3195 17.7302L46.3385 26.5754C46.3489 31.4403 46.3419 35.4206 46.323 35.4206C46.304 35.4206 39.4539 31.4595 31.1006 26.6182C22.7474 21.7769 15.8539 17.8002 15.7818 17.781C15.6573 17.7479 15.6517 18.1926 15.6697 26.6343L15.6887 35.5224L23.2343 39.8907C27.3844 42.2933 34.1923 46.2348 38.3629 48.6496L45.9459 53.0403L46.3942 53.0367L46.8425 53.0332L54.2013 48.7628C58.2487 46.4141 61.6023 44.4588 61.6536 44.4176C61.7728 44.3218 61.7915 9.61957 61.6726 9.19267C61.6321 9.04739 61.4894 8.82597 61.3555 8.70051C61.1482 8.50644 46.7041 0.0925762 46.4195 0.000119507C46.3645 -0.0176864 42.8903 1.95654 38.6991 4.38731ZM6.79826 61.273C5.80395 61.3833 4.81271 61.7142 3.98688 62.2114C3.7555 62.3507 3.54699 62.4647 3.52353 62.4647C3.50007 62.4647 3.47078 62.2552 3.45861 61.9991L3.43634 61.5335H1.9048H0.37326L0.354209 68.5304C0.336652 74.9615 0.345169 75.5382 0.459176 75.6639C0.570567 75.7867 0.718043 75.8006 1.91108 75.8006C3.01857 75.8006 3.25838 75.7811 3.35633 75.6835C3.45988 75.5802 3.47385 75.1261 3.47497 71.828C3.47601 68.872 3.49865 67.9843 3.58329 67.5862C3.88841 66.1503 5.09467 64.8815 6.50256 64.5158C7.07618 64.3668 8.11673 64.3692 8.63372 64.5206C9.68309 64.828 10.6114 65.5817 11.1109 66.5319C11.6157 67.4922 11.617 67.5061 11.617 71.7021C11.617 74.9912 11.6318 75.4904 11.7333 75.6349C11.8463 75.7959 11.8887 75.8006 13.2183 75.8006C14.3045 75.8006 14.6052 75.7789 14.6744 75.6956C14.7395 75.6174 14.7555 74.5184 14.7371 71.3931C14.7129 67.2788 14.709 67.1838 14.5413 66.5996C13.6553 63.5139 11.0911 61.4429 7.9189 61.2512C7.59018 61.2313 7.08589 61.2411 6.79826 61.273ZM22.8582 61.2782C19.0613 61.636 16.1847 65.0121 16.4245 68.8293C16.5382 70.64 17.3249 72.3565 18.6304 73.6423C19.5932 74.5907 20.6906 75.2153 22.0632 75.5961C22.5895 75.7421 22.8586 75.7574 25.3345 75.7828C27.7573 75.8076 28.045 75.798 28.1548 75.6884C28.3337 75.5101 28.3381 72.9664 28.1598 72.7885C28.058 72.687 27.7263 72.6715 25.6607 72.6715C24.2105 72.6715 23.1242 72.6393 22.8831 72.5892C22.3314 72.4744 21.6386 72.1337 21.1497 71.7364C20.6104 71.2984 19.9724 70.4095 19.8021 69.859L19.7502 69.6914H25.0804C29.9108 69.6914 30.427 69.6799 30.5864 69.5686C30.7608 69.4468 30.7619 69.4367 30.7221 68.3579C30.6947 67.613 30.6343 67.0906 30.5306 66.7005C29.6028 63.2112 26.396 60.945 22.8582 61.2782ZM53.5663 61.2472C50.59 61.7189 48.2469 63.8411 47.4655 66.7728C47.2458 67.5971 47.1989 69.0105 47.3625 69.8769C48.0911 73.7354 51.4617 76.297 55.3403 75.9401C58.4484 75.6541 60.9951 73.4134 61.7647 70.2874C61.9507 69.5321 61.9869 67.9066 61.8337 67.1956C61.3047 64.7411 59.854 62.8774 57.6842 61.8648C56.7018 61.4064 56.0395 61.2597 54.8364 61.234C54.2611 61.2218 53.6896 61.2276 53.5663 61.2472ZM41.7622 63.8058L39.2229 66.3388L36.7193 63.843C35.3424 62.4703 34.1819 61.3472 34.1405 61.3472C34.0435 61.3472 31.9379 63.4487 31.9379 63.5455C31.9379 63.5858 33.0724 64.7504 34.459 66.1336L36.98 68.6484L34.4217 71.2004C33.0145 72.6041 31.8632 73.7863 31.8632 73.8276C31.8632 73.9244 33.9706 76.0241 34.0677 76.0241C34.108 76.0241 35.2869 74.8818 36.6872 73.4858L39.2334 70.9475L41.7252 73.4485C43.0957 74.8241 44.2698 75.949 44.3344 75.9482C44.4445 75.947 46.5063 73.8605 46.5063 73.7503C46.5063 73.7223 45.4053 72.5763 44.0595 71.2036C42.7138 69.8309 41.6128 68.6774 41.6128 68.6404C41.6128 68.6034 42.7334 67.4333 44.103 66.0402C45.4727 64.6471 46.5821 63.4766 46.5684 63.4391C46.5045 63.2635 44.536 61.2727 44.4262 61.2727C44.3576 61.2727 43.1588 62.4126 41.7622 63.8058ZM53.9284 64.3344C52.3313 64.6004 51.0612 65.7281 50.496 67.3819C50.2818 68.0086 50.2993 69.1901 50.5331 69.9021C51.4557 72.7105 54.877 73.8033 57.1753 72.0236C59.2522 70.4153 59.4497 67.388 57.5984 65.5385C56.606 64.5471 55.2742 64.1101 53.9284 64.3344ZM22.4577 64.5197C21.8253 64.6893 21.3351 64.9894 20.7667 65.5553C20.3338 65.9861 19.7603 66.8313 19.7603 67.0384C19.7603 67.0634 21.4768 67.0838 23.5746 67.0838H27.3888L27.1084 66.5516C26.6036 65.5937 25.6633 64.8258 24.6215 64.5206C24.1154 64.3724 23.0088 64.3719 22.4577 64.5197Z" fill="#727272"/>
</svg>
