<svg width="12" height="12" viewBox="0 0 12 12" fill="none" xmlns="http://www.w3.org/2000/svg">
<path d="M5.83372 0.357788C7.36365 0.357788 7.55454 0.363419 8.15481 0.391574C8.7545 0.419729 9.16275 0.513766 9.52201 0.653415C9.89365 0.796441 10.2067 0.990147 10.5198 1.30267C10.8061 1.58416 11.0277 1.92466 11.1691 2.30048C11.3082 2.65917 11.4028 3.06798 11.4309 3.66768C11.4574 4.26794 11.4647 4.45883 11.4647 5.98877C11.4647 7.5187 11.4591 7.70959 11.4309 8.30986C11.4028 8.90956 11.3082 9.3178 11.1691 9.67706C11.0281 10.0531 10.8065 10.3937 10.5198 10.6749C10.2382 10.9611 9.89777 11.1826 9.52201 11.3241C9.16331 11.4632 8.7545 11.5578 8.15481 11.586C7.55454 11.6124 7.36365 11.6197 5.83372 11.6197C4.30378 11.6197 4.11289 11.6141 3.51263 11.586C2.91293 11.5578 2.50468 11.4632 2.14542 11.3241C1.76946 11.1831 1.4289 10.9615 1.14761 10.6749C0.861226 10.3934 0.639661 10.0529 0.498362 9.67706C0.358714 9.31837 0.264677 8.90956 0.236522 8.30986C0.210056 7.70959 0.202736 7.5187 0.202736 5.98877C0.202736 4.45883 0.208367 4.26794 0.236522 3.66768C0.264677 3.06742 0.358714 2.65973 0.498362 2.30048C0.63927 1.92443 0.860887 1.58383 1.14761 1.30267C1.42898 1.01618 1.76952 0.7946 2.14542 0.653415C2.50468 0.513766 2.91236 0.419729 3.51263 0.391574C4.11289 0.365108 4.30378 0.357788 5.83372 0.357788ZM5.83372 3.17328C5.087 3.17328 4.37087 3.46991 3.84286 3.99792C3.31486 4.52592 3.01823 5.24205 3.01823 5.98877C3.01823 6.73548 3.31486 7.45161 3.84286 7.97962C4.37087 8.50763 5.087 8.80426 5.83372 8.80426C6.58043 8.80426 7.29656 8.50763 7.82457 7.97962C8.35257 7.45161 8.64921 6.73548 8.64921 5.98877C8.64921 5.24205 8.35257 4.52592 7.82457 3.99792C7.29656 3.46991 6.58043 3.17328 5.83372 3.17328ZM9.49385 3.0325C9.49385 2.84582 9.41969 2.66679 9.28769 2.53479C9.15569 2.40279 8.97666 2.32863 8.78998 2.32863C8.6033 2.32863 8.42427 2.40279 8.29227 2.53479C8.16026 2.66679 8.08611 2.84582 8.08611 3.0325C8.08611 3.21918 8.16026 3.39821 8.29227 3.53022C8.42427 3.66222 8.6033 3.73638 8.78998 3.73638C8.97666 3.73638 9.15569 3.66222 9.28769 3.53022C9.41969 3.39821 9.49385 3.21918 9.49385 3.0325ZM5.83372 4.29947C6.28174 4.29947 6.71142 4.47745 7.02823 4.79426C7.34503 5.11106 7.52301 5.54074 7.52301 5.98877C7.52301 6.4368 7.34503 6.86648 7.02823 7.18328C6.71142 7.50008 6.28174 7.67806 5.83372 7.67806C5.38569 7.67806 4.95601 7.50008 4.6392 7.18328C4.3224 6.86648 4.14442 6.4368 4.14442 5.98877C4.14442 5.54074 4.3224 5.11106 4.6392 4.79426C4.95601 4.47745 5.38569 4.29947 5.83372 4.29947Z" fill="white"/>
</svg>
