<svg width="8" height="12" viewBox="0 0 8 12" fill="none" xmlns="http://www.w3.org/2000/svg">
<path d="M4.24206 6.18086C2.52035 6.18086 1.08935 4.85981 1.08935 3.29663C1.08935 1.6794 2.52035 0.357788 4.24267 0.357788C6.02349 0.357788 7.39537 1.67883 7.39537 3.29663C7.39231 4.06417 7.05953 4.79919 6.47018 5.34012C5.88083 5.88106 5.08314 6.18366 4.25242 6.18142L4.24206 6.18086ZM4.24206 2.05668C3.51315 2.05668 2.95855 2.6226 2.95855 3.2972C2.95855 3.97067 3.51315 4.4831 4.24267 4.4831C5.00144 4.4831 5.52679 3.97067 5.52679 3.2972C5.5274 2.62203 5.00144 2.05668 4.24206 2.05668ZM5.49753 8.58081L7.27897 10.1716C7.6294 10.5213 7.6294 11.0337 7.27897 11.3575C6.89989 11.7072 6.31542 11.7072 6.02349 11.3575L4.24267 9.73968L2.52035 11.3575C2.34544 11.5191 2.1114 11.5996 1.84812 11.5996C1.64395 11.5996 1.41053 11.5185 1.20576 11.3575C0.85532 11.0337 0.85532 10.5213 1.20576 10.171L3.01583 8.58025C2.36215 8.4014 1.73509 8.14812 1.14908 7.82625C0.710879 7.61058 0.623727 7.07169 0.857148 6.66682C1.14908 6.26251 1.67443 6.15495 2.14188 6.42468C2.77485 6.78159 3.50205 6.97041 4.24358 6.97041C4.98511 6.97041 5.71231 6.78159 6.34528 6.42468C6.81274 6.15495 7.36673 6.26251 7.6294 6.66682C7.89269 7.07169 7.77506 7.61002 7.36612 7.82625C6.81213 8.15003 6.16976 8.39273 5.49814 8.58137L5.49753 8.58081Z" fill="white"/>
</svg>
