<svg width="13" height="7" viewBox="0 0 13 7" fill="none" xmlns="http://www.w3.org/2000/svg">
<path fill-rule="evenodd" clip-rule="evenodd" d="M6.43815 6.46825H7.12096C7.12096 6.46825 7.32581 6.43476 7.42823 6.33431C7.53065 6.23386 7.53065 6.03295 7.53065 6.03295C7.53065 6.03295 7.53065 5.16236 7.94034 5.02843C8.35003 4.89449 8.89628 5.89901 9.44253 6.26734C9.85222 6.5687 10.1595 6.50173 10.1595 6.50173L11.6617 6.46825C11.6617 6.46825 12.4469 6.43476 12.0714 5.79856C12.0372 5.76508 11.8665 5.36327 10.9447 4.52616C9.98879 3.65557 10.1253 3.82299 11.252 2.31621C11.9348 1.41213 12.2079 0.876386 12.1397 0.608512C12.0714 0.374123 11.5593 0.441091 11.5593 0.441091H9.85222C9.85222 0.441091 9.71566 0.407607 9.64738 0.474575C9.54496 0.541544 9.51082 0.641996 9.51082 0.641996C9.51082 0.641996 9.23769 1.34516 8.89628 1.94788C8.14518 3.18679 7.83792 3.25376 7.7355 3.18679C7.46237 3.01937 7.53065 2.45014 7.53065 2.08182C7.53065 0.876385 7.7355 0.374123 7.1551 0.240186C6.9844 0.206702 6.84784 0.173218 6.36986 0.173218C5.75533 0.173218 5.24322 0.173218 4.97009 0.307154C4.76525 0.407607 4.62868 0.608512 4.73111 0.608512C4.83353 0.608512 5.10666 0.675481 5.24322 0.842902C5.37978 1.14426 5.37978 1.64652 5.37978 1.64652C5.37978 1.64652 5.4822 3.08634 5.1408 3.25376C4.90181 3.3877 4.59454 3.11983 3.91173 1.98136C3.57032 1.41213 3.29719 0.742449 3.29719 0.742449C3.29719 0.742449 3.26305 0.608512 3.16063 0.541544C3.05821 0.474576 2.8875 0.441091 2.8875 0.441091H1.28289C1.28289 0.441091 1.0439 0.441091 0.94148 0.541544C0.873199 0.641997 0.94148 0.809417 0.94148 0.809417C0.94148 0.809417 2.20469 3.68906 3.6386 5.16236C4.97009 6.5687 6.43815 6.46825 6.43815 6.46825Z" fill="white"/>
</svg>
