<svg width="138" height="37" viewBox="0 0 138 37" fill="none" xmlns="http://www.w3.org/2000/svg">
<path fill-rule="evenodd" clip-rule="evenodd" d="M13.8042 0.585117C13.2143 0.692008 13.1509 0.71905 11.8317 1.42722C11.682 1.50755 11.3912 1.66289 11.1855 1.77241C10.9797 1.88192 10.6889 2.03741 10.5393 2.11795C10.3897 2.19848 10.0836 2.36163 9.8591 2.48051C9.63464 2.59935 9.35916 2.74699 9.24693 2.80854C9.1347 2.87008 8.81331 3.04162 8.53273 3.18971C7.7013 3.6286 7.45565 3.75949 7.24037 3.87837C7.04659 3.9854 6.75346 4.14126 5.74396 4.67405C5.50079 4.80239 5.25592 4.9346 5.19981 4.96785C5.14369 5.00108 4.8376 5.16457 4.51962 5.33114C3.64207 5.79082 3.43652 5.95287 3.2429 6.33781L3.15924 6.5041L3.14971 18.5918C3.13907 32.0975 3.11591 30.8489 3.38414 31.2293C3.56004 31.4788 3.81467 31.6574 4.51962 32.0259C4.8376 32.1921 5.14369 32.3553 5.19981 32.3885C5.25592 32.4218 5.50079 32.554 5.74396 32.6823C6.75346 33.2151 7.04659 33.371 7.24037 33.478C7.45565 33.5969 7.7013 33.7278 8.53273 34.1666C8.81331 34.3147 9.1347 34.4863 9.24693 34.5478C9.35916 34.6094 9.63464 34.757 9.8591 34.8758C10.0836 34.9947 10.3897 35.1579 10.5393 35.2384C10.6889 35.319 10.9797 35.4744 11.1855 35.5839C11.3912 35.6935 11.682 35.8488 11.8317 35.9291C13.0401 36.5778 13.1019 36.6067 13.4811 36.7012C14.0882 36.8524 14.6941 36.8444 15.3516 36.6764C15.511 36.6357 15.7397 36.5404 15.9468 36.4283C16.0403 36.3777 16.3005 36.2388 16.525 36.1195C16.7494 36.0003 17.0708 35.8291 17.2392 35.739C17.4075 35.6489 17.6906 35.4975 17.8683 35.4024C18.046 35.3074 18.3904 35.125 18.6335 34.997C18.8767 34.8691 19.1522 34.7214 19.2457 34.6689C19.3392 34.6163 19.6288 34.4612 19.8891 34.3242C20.3447 34.0843 20.6771 33.9068 21.1843 33.6325C21.3152 33.5617 21.6672 33.3755 21.9665 33.2186C22.2658 33.0618 22.5565 32.9062 22.6127 32.8729C22.6688 32.8395 22.9442 32.6918 23.2248 32.5447C23.5054 32.3975 23.8268 32.2268 23.939 32.1653C24.0513 32.1038 24.3114 31.9635 24.5172 31.8536C24.9973 31.5969 25.1463 31.484 25.3369 31.2322C25.4762 31.0481 25.5421 30.9052 25.588 30.6876C25.6159 30.5555 25.6234 27.2977 25.6158 18.5746L25.6055 6.64225L25.5271 6.45489C25.3554 6.04435 25.1262 5.82829 24.5172 5.50279C24.3114 5.39282 24.0513 5.25254 23.939 5.19103C23.8268 5.12955 23.5054 4.95884 23.2248 4.81168C22.9442 4.66452 22.6688 4.51684 22.6127 4.48348C22.5565 4.45012 22.2658 4.29453 21.9665 4.13774C21.6672 3.98091 21.3152 3.79469 21.1843 3.72385C20.6771 3.44957 20.3447 3.27208 19.8891 3.03219C19.6288 2.89512 19.3392 2.74002 19.2457 2.68749C19.1522 2.63492 18.8767 2.48728 18.6335 2.35932C18.3904 2.2314 18.046 2.04898 17.8683 1.95393C17.6906 1.85889 17.4075 1.70745 17.2392 1.61738C17.0708 1.5273 16.7494 1.35604 16.525 1.23682C16.3005 1.1176 16.0403 0.978625 15.9468 0.928029C15.6107 0.74623 15.4339 0.687172 14.9605 0.59869C14.6637 0.543225 14.0737 0.536283 13.8042 0.585117ZM13.7082 2.03551C13.5992 2.07294 13.3926 2.16681 13.249 2.24414C13.0016 2.37738 12.7386 2.51791 11.9167 2.95607C11.7203 3.06079 11.4524 3.20425 11.3215 3.27491C11.1906 3.34558 10.8692 3.51667 10.6073 3.65516C10.3454 3.79365 10.0547 3.94941 9.96113 4.00128C9.86761 4.05316 9.57683 4.20809 9.31495 4.34554C9.05308 4.48303 8.7623 4.63827 8.66877 4.69056C8.49614 4.78706 8.17982 4.95673 7.44443 5.34731C7.21997 5.46649 6.92919 5.62201 6.79825 5.69288C6.66731 5.76375 6.37653 5.91892 6.15207 6.03769C5.92761 6.15649 5.59857 6.33249 5.42087 6.42885C5.24317 6.52517 4.99177 6.65924 4.86223 6.72672C4.73269 6.79424 4.62556 6.86228 4.62416 6.87796C4.62277 6.89364 4.78234 6.99182 4.97874 7.09612C5.30197 7.26781 5.5381 7.3941 6.39014 7.85095C6.53978 7.93121 6.83056 8.08656 7.03632 8.19618C7.24207 8.30583 7.54816 8.46919 7.71651 8.55922C8.02749 8.72552 8.3701 8.90842 9.04288 9.26729C9.24863 9.37701 9.53941 9.53267 9.68906 9.61314C9.8387 9.69361 10.1907 9.87983 10.4713 10.027C10.7519 10.1741 10.9967 10.3059 11.0154 10.3199C11.0341 10.3338 11.3249 10.49 11.6616 10.6672C11.9983 10.8443 12.4574 11.0881 12.6819 11.209C13.5661 11.6854 13.6921 11.7396 14.0371 11.7917C14.4712 11.8573 14.9069 11.7968 15.2434 11.6243C15.4894 11.4982 16.2573 11.0916 16.695 10.8558C16.8446 10.7751 17.1507 10.6119 17.3752 10.4931C17.5997 10.3742 17.9287 10.1993 18.1064 10.1042C18.2841 10.0092 18.5902 9.84584 18.7866 9.7412C18.983 9.63655 19.2508 9.49312 19.3818 9.42246C19.5127 9.3518 19.8341 9.18071 20.096 9.04222C20.3578 8.90376 20.6404 8.75235 20.7239 8.70583C20.8074 8.65928 21.1135 8.49647 21.4041 8.34403C21.6947 8.19158 21.9784 8.03959 22.0345 8.00626C22.0906 7.97297 22.3469 7.83507 22.6041 7.69986C22.8613 7.56465 23.1865 7.39183 23.3268 7.31578C23.4671 7.23976 23.7005 7.1136 23.8455 7.03541C23.9905 6.95722 24.1137 6.88908 24.1193 6.88397C24.1306 6.87378 23.6834 6.62892 22.9527 6.24518C22.6909 6.10769 22.4001 5.95211 22.3066 5.89951C22.213 5.84687 21.9376 5.69909 21.6944 5.5711C21.4512 5.44314 21.1604 5.28804 21.0482 5.22646C20.936 5.16488 20.6452 5.00937 20.402 4.88093C20.1589 4.75245 19.8375 4.58146 19.6878 4.50096C19.2353 4.25747 18.793 4.02159 18.3275 3.77545C18.0843 3.64687 17.8394 3.51463 17.7833 3.48155C17.7272 3.44849 17.467 3.30883 17.2051 3.1712C16.9433 3.03361 16.6372 2.8706 16.525 2.80898C16.348 2.7118 15.9361 2.4927 15.294 2.15411C15.0109 2.00484 14.7984 1.96319 14.3313 1.96543C14.0021 1.96702 13.8615 1.98284 13.7082 2.03551ZM25.3419 2.97638C25.2391 3.1501 25.0786 3.41821 24.9852 3.5722L24.8153 3.85216L25.1424 4.05216C26.6868 4.99655 26.958 5.38875 27.0591 6.82356L27.0986 7.38478H27.7768H28.455L28.4348 6.8581C28.3828 5.50424 28.0872 4.70113 27.3762 3.98177C26.9856 3.58661 26.7351 3.39887 25.9925 2.94437L25.5287 2.66051L25.3419 2.97638ZM43.7495 6.53809C43.195 6.60177 42.9763 6.6476 42.5592 6.78754C41.905 7.00709 41.3788 7.33373 40.9068 7.81331C40.4317 8.29613 40.1023 8.84166 39.8751 9.52199C39.7746 9.82319 39.7432 9.94779 39.6652 10.3549C39.5761 10.8202 39.5332 11.5724 39.5328 12.6775L39.5324 13.8431H38.053H36.5735V15.0519V16.2606H38.053H39.5324V22.8743V29.4881H41.0798H42.6272V22.8743V16.2606H44.4297H46.2322V15.0519V13.8431H44.4271H42.622L42.6358 12.5911C42.6502 11.2964 42.6652 11.1383 42.8183 10.674C43.0318 10.0265 43.57 9.45565 44.1337 9.27893C44.7427 9.08801 45.6906 9.09734 46.4816 9.30203C46.5906 9.33025 46.6939 9.35335 46.7111 9.35335C46.7487 9.35335 46.7544 6.79804 46.7169 6.79683C46.7029 6.79642 46.5766 6.76502 46.4363 6.72714C45.6743 6.52137 44.5711 6.44373 43.7495 6.53809ZM4.50261 12.6496C4.50261 14.9776 4.51411 16.8822 4.52812 16.8821C4.54213 16.8819 4.59189 16.8613 4.63865 16.8361C4.68541 16.811 4.93793 16.677 5.19981 16.5384C5.46168 16.3998 5.82898 16.2049 6.01603 16.1053C6.20308 16.0057 6.53978 15.8269 6.76424 15.7079C6.9887 15.5889 7.27948 15.4337 7.41042 15.3629C7.54136 15.2922 7.86275 15.121 8.12462 14.9825C8.38649 14.844 8.67727 14.6885 8.7708 14.637C8.86433 14.5855 9.17041 14.4225 9.45099 14.2747C9.73157 14.1269 9.97644 13.9948 9.99514 13.9812C10.0138 13.9675 10.3046 13.8115 10.6413 13.6345C10.978 13.4574 11.3996 13.233 11.5782 13.1358C11.7568 13.0386 12.0207 12.8977 12.1647 12.8226C12.3087 12.7476 12.4266 12.678 12.4267 12.668C12.4268 12.658 12.2853 12.5747 12.1122 12.4829C11.9392 12.391 11.6599 12.242 11.4916 12.1516C10.8835 11.8254 10.5314 11.6376 10.0972 11.408C9.854 11.2794 9.60913 11.1472 9.55302 11.1141C9.4969 11.081 9.23673 10.9414 8.97486 10.804C8.71298 10.6664 8.4222 10.5114 8.32868 10.4595C8.23515 10.4076 7.92907 10.2441 7.64849 10.0962C7.36791 9.94828 7.06182 9.78513 6.9683 9.73363C6.87477 9.68211 6.5993 9.53443 6.35613 9.40543C6.11296 9.27648 5.79157 9.10531 5.64193 9.02509C5.49229 8.94486 5.17471 8.77521 4.93623 8.64809L4.50261 8.4169V12.6496ZM23.786 8.64215C23.3533 8.87737 22.7834 9.18316 22.1875 9.49972C21.9724 9.614 21.6587 9.78126 21.4903 9.8714C21.1229 10.0682 20.6321 10.3302 20.147 10.5887C19.9506 10.6934 19.6827 10.8368 19.5518 10.9075C19.4209 10.9781 19.0995 11.1492 18.8376 11.2877C18.5757 11.4262 18.2926 11.5779 18.2084 11.6248C18.1243 11.6718 17.8029 11.8426 17.4942 12.0044C17.1856 12.1662 16.9178 12.31 16.8991 12.3239C16.8804 12.3379 16.7388 12.4148 16.5845 12.4949C16.4301 12.575 16.3039 12.6514 16.3039 12.6647C16.3039 12.6898 16.485 12.7919 17.1711 13.1531C17.3956 13.2713 17.6558 13.4104 17.7493 13.4622C17.8428 13.514 18.1336 13.6697 18.3955 13.8081C18.6574 13.9465 18.9634 14.1096 19.0757 14.1706C19.3906 14.3416 20.0159 14.6751 21.1162 15.2591C21.3033 15.3583 21.5788 15.5059 21.7284 15.5869C21.878 15.668 22.2147 15.8469 22.4766 15.9845C22.7385 16.1221 23.0446 16.2849 23.1568 16.3464C23.269 16.4078 23.5292 16.5477 23.735 16.6573C23.9407 16.7668 24.1236 16.8701 24.1414 16.8866C24.1592 16.9032 24.1859 16.9168 24.2009 16.9168C24.2159 16.9168 24.2281 15.0052 24.2281 12.6688C24.2281 10.3325 24.2166 8.42281 24.2026 8.42519C24.1886 8.42754 24.0011 8.52517 23.786 8.64215ZM90.029 8.85441C90.0092 8.87444 89.1828 9.16972 88.574 9.37418C88.3776 9.44014 88.1863 9.50821 88.1489 9.52545C88.0805 9.55691 87.0775 9.90594 87.0554 9.90594C87.0489 9.90594 87.0436 10.7918 87.0436 11.8745V13.8431H85.5472H84.0508V15.0519V16.2606H85.5456H87.0404L87.0532 20.8626L87.0659 25.4646L87.154 25.8728C87.3905 26.9697 87.7282 27.6822 88.3001 28.2907C88.7178 28.7352 89.0068 28.9484 89.5474 29.2111C90.3033 29.5783 90.9401 29.7022 92.077 29.7033C92.8049 29.704 93.1891 29.6698 93.6925 29.5595C93.7673 29.5431 93.8821 29.5188 93.9475 29.5055C94.013 29.4922 94.1316 29.4574 94.2111 29.4282L94.3556 29.3751V28.1192C94.3556 27.4285 94.3436 26.8633 94.3288 26.8633C94.314 26.8633 94.2183 26.8843 94.1162 26.91C93.3406 27.1049 92.7393 27.149 92.1641 27.0533C91.0473 26.8674 90.4456 26.2907 90.2005 25.171C90.13 24.8489 90.1284 24.7644 90.1142 20.5518L90.0998 16.2606H92.2447H94.3896V15.0519V13.8431H92.247H90.1045V11.3392C90.1045 9.96206 90.0917 8.83531 90.0761 8.83531C90.0605 8.83531 90.0393 8.84391 90.029 8.85441ZM54.4965 13.5002C53.301 13.6545 52.5258 13.9254 51.66 14.4912C50.5416 15.2222 49.7176 16.2355 49.093 17.6481C48.2744 19.4996 48.1082 22.3028 48.6858 24.5148C49.1405 26.2561 50.1269 27.7189 51.4602 28.6293C52.2685 29.1812 53.0526 29.4784 54.1904 29.6641C54.7262 29.7515 56.0966 29.7104 56.6221 29.5911C57.2668 29.4447 57.5466 29.3494 58.0675 29.0988C58.9544 28.6721 59.6751 27.9938 60.1491 27.1396L60.312 26.846L60.3121 28.1671L60.3122 29.4881H61.8426H63.373V21.6656V13.8431H61.8426H60.3122L60.3115 15.1123L60.3109 16.3815L60.2166 16.2088C60.0424 15.89 59.8814 15.6551 59.6238 15.3439C59.3668 15.0335 59.3163 14.9828 59.0024 14.7196C58.4858 14.2864 57.5197 13.8009 56.9112 13.6687C56.5155 13.5827 56.3777 13.5591 56.01 13.5143C55.5707 13.4608 54.854 13.4541 54.4965 13.5002ZM75.4124 13.5014C74.5649 13.5987 73.8668 13.8006 73.1847 14.1455C72.9683 14.2549 72.3927 14.6157 72.3515 14.6677C72.3422 14.6796 72.235 14.7737 72.1134 14.8769C71.7038 15.2247 71.2329 15.8071 70.9945 16.2606C70.8977 16.4446 70.8509 16.5097 70.8303 16.4887C70.822 16.4803 70.8012 16.3245 70.7841 16.1426C70.767 15.9605 70.7385 15.6679 70.7207 15.4922C70.6395 14.6903 70.6107 14.3936 70.5892 14.1366L70.566 13.8604L69.1291 13.8513C68.3388 13.8464 67.6925 13.8542 67.6929 13.8686C67.6932 13.8831 67.7169 14.0969 67.7455 14.3439C67.9082 15.7475 67.9267 16.6639 67.9286 23.3838L67.9303 29.4881H69.4597H70.9891L71.0006 24.6098C71.0094 20.8764 71.022 19.691 71.0543 19.5589C71.0775 19.4639 71.1288 19.2545 71.1683 19.0935C71.3571 18.3242 71.7169 17.6969 72.2891 17.1391C72.6176 16.8189 72.7766 16.7024 73.1709 16.4925C73.6961 16.213 74.1658 16.0866 74.9264 16.0201C75.7037 15.952 76.4907 16.0809 77.0757 16.3721C77.5679 16.6171 77.8756 16.9268 78.1143 17.4176C78.2066 17.6075 78.2935 17.794 78.3073 17.832C78.3723 18.0113 78.4395 18.2667 78.4754 18.471C78.4971 18.5944 78.531 18.7654 78.5507 18.8509C78.5746 18.9547 78.5909 20.744 78.5997 24.2472L78.6129 29.4881H80.1585H81.7041L81.7037 24.5062C81.7032 18.9365 81.6934 18.6325 81.4828 17.5903C81.4219 17.2889 81.272 16.7469 81.2274 16.6669C81.209 16.6339 81.194 16.5912 81.194 16.5721C81.194 16.5529 81.1394 16.4167 81.0727 16.2694C80.3823 14.7457 79.1858 13.8503 77.4699 13.5735C76.7886 13.4635 75.9864 13.4355 75.4124 13.5014ZM102.96 13.5154C102.037 13.6141 101.414 13.7699 100.647 14.0939C99.8259 14.4409 98.9413 15.0632 98.3688 15.6969C98.0487 16.051 97.9985 16.1151 97.7342 16.5059C96.8007 17.8863 96.3263 19.6111 96.3292 21.6138C96.3303 22.3062 96.4102 23.2213 96.5102 23.686C96.6445 24.3096 96.7622 24.7155 96.9458 25.1883C97.0852 25.5474 97.3789 26.1571 97.489 26.316C97.524 26.3665 97.5525 26.4163 97.5525 26.4268C97.5525 26.5168 98.1401 27.2594 98.5015 27.6262C99.3968 28.5348 100.414 29.1192 101.668 29.4456C102.037 29.5418 102.177 29.5692 102.79 29.6657C103.136 29.7201 104.598 29.7183 104.984 29.6629C106.083 29.5052 106.741 29.3041 107.585 28.8677C108.585 28.351 109.457 27.5574 110.091 26.587C110.242 26.3557 110.578 25.7703 110.578 25.7382C110.578 25.7313 110.615 25.6433 110.661 25.5427C111.349 24.0145 111.58 22.1156 111.325 20.0769C111.153 18.7056 110.605 17.2838 109.859 16.2715C109.18 15.3514 108.159 14.5339 107.177 14.1246C107.074 14.0817 106.96 14.0333 106.922 14.0171C105.894 13.5717 104.31 13.3711 102.96 13.5154ZM122.141 13.5019C121.295 13.6166 120.872 13.742 120.22 14.0717C119.576 14.3969 118.979 14.903 118.544 15.4932C118.427 15.6505 118.332 15.7876 118.332 15.7978C118.332 15.8081 118.289 15.8815 118.237 15.9609C118.185 16.0403 118.105 16.1783 118.06 16.2675C117.967 16.4506 117.926 16.4305 117.925 16.2016C117.924 16.1217 117.91 15.9429 117.892 15.8044C117.874 15.6659 117.844 15.3933 117.824 15.1986C117.736 14.3318 117.715 14.1276 117.699 13.9899L117.682 13.8431H116.237C115.442 13.8431 114.799 13.8563 114.809 13.8725C114.83 13.9064 114.878 14.3662 114.948 15.2073C115.046 16.3859 115.067 17.8532 115.067 23.6428L115.067 29.4881H116.579H118.09L118.103 24.7307C118.115 20.3934 118.121 19.9413 118.175 19.6107C118.317 18.7486 118.507 18.2156 118.877 17.6439C119.33 16.944 119.963 16.4407 120.696 16.1985C121.577 15.9073 122.767 15.9513 123.444 16.3001C124.175 16.6767 124.624 17.4077 124.79 18.4882C124.81 18.6212 124.842 18.8511 124.861 18.9991C124.884 19.1719 124.896 21.0957 124.896 24.3781V29.4881H126.442H127.989L127.999 24.5925L128.009 19.697L128.087 19.3344C128.313 18.2722 128.676 17.5611 129.299 16.9599C129.683 16.589 130.164 16.2945 130.559 16.1883C130.615 16.1733 130.722 16.144 130.797 16.1233C130.872 16.1026 131.13 16.0634 131.372 16.0361C132.297 15.9319 133.081 16.1041 133.652 16.5372C133.966 16.7748 134.2 17.1008 134.385 17.5557C134.53 17.9137 134.583 18.1287 134.676 18.7442C134.717 19.017 134.725 19.9083 134.725 24.2787V29.4881H136.274H137.823L137.811 23.9881L137.798 18.4882L137.723 18.0575C137.605 17.3851 137.476 16.8392 137.377 16.5887C137.362 16.5507 137.315 16.4264 137.273 16.3124C136.767 14.96 135.679 13.9871 134.299 13.655C133.944 13.5694 133.935 13.568 133.489 13.5144C132.966 13.4514 132.436 13.4511 131.936 13.5132C131.583 13.5572 131.423 13.5855 131.052 13.67C130.444 13.8083 129.621 14.2156 129.029 14.6702C128.525 15.0575 128.011 15.6437 127.701 16.185L127.537 16.472L127.359 16.0909C126.867 15.0421 126.178 14.3408 125.217 13.9131C125.032 13.8307 124.831 13.7501 124.769 13.7341C124.708 13.7181 124.601 13.6891 124.531 13.6696C123.912 13.4982 122.764 13.4176 122.141 13.5019ZM13.4104 13.7356C13.3061 13.7883 13.0612 13.9177 12.8663 14.0233C12.6713 14.1288 12.3435 14.3041 12.1377 14.4129C11.932 14.5217 11.6412 14.6766 11.4916 14.7573C11.1636 14.934 10.323 15.3826 9.45099 15.8462C9.22653 15.9656 8.95105 16.1132 8.83882 16.1742C8.72659 16.2352 8.4205 16.3985 8.15863 16.5369C7.89676 16.6754 7.59067 16.8387 7.47844 16.8999C7.36621 16.9611 7.10604 17.1006 6.90028 17.2099C6.69452 17.3192 6.41905 17.467 6.28811 17.5383C6.15717 17.6097 5.85109 17.7729 5.60792 17.901C4.81567 18.3186 4.59893 18.4445 4.62753 18.4706C4.643 18.4847 4.80485 18.5761 4.98725 18.6736C5.64125 19.0233 5.95431 19.1902 6.35613 19.4036C6.58059 19.5228 6.85607 19.6706 6.9683 19.732C7.08053 19.7934 7.40192 19.9643 7.6825 20.1119C7.96308 20.2594 8.20794 20.3912 8.22665 20.4048C8.24535 20.4184 8.50553 20.5582 8.80481 20.7154C9.10409 20.8727 9.42548 21.0436 9.51901 21.0952C9.61253 21.1468 9.90332 21.3023 10.1652 21.4408C10.4271 21.5793 10.7485 21.7505 10.8794 21.8213C11.0103 21.8922 11.3164 22.0554 11.5596 22.184C11.8027 22.3126 12.1088 22.4757 12.2398 22.5466C12.9066 22.9072 13.614 23.2715 13.6475 23.2715C13.6749 23.2715 13.6852 21.9575 13.6852 18.4537C13.6852 14.6214 13.6765 13.6363 13.6427 13.6379C13.6193 13.639 13.5148 13.683 13.4104 13.7356ZM15.0455 18.4537C15.0455 22.0517 15.0554 23.2715 15.0845 23.2715C15.1059 23.2715 15.3164 23.1681 15.5522 23.0419C15.7879 22.9155 16.1415 22.7271 16.3379 22.623C16.5343 22.519 16.806 22.3737 16.9416 22.3C17.0772 22.2264 17.3986 22.0556 17.6558 21.9204C17.913 21.7851 18.1693 21.6474 18.2254 21.6142C18.2815 21.5811 18.5417 21.4411 18.8036 21.3031C19.2957 21.0439 19.7756 20.7876 20.13 20.5949C20.2422 20.534 20.5636 20.3629 20.8442 20.2149C21.1247 20.067 21.4232 19.9074 21.5073 19.8604C21.5915 19.8134 21.9129 19.6426 22.2215 19.4808C22.5302 19.319 22.798 19.1753 22.8167 19.1614C22.8354 19.1476 23.1262 18.9925 23.4629 18.8167C23.7996 18.6409 24.0877 18.4854 24.1031 18.4711C24.1185 18.4568 24.0573 18.4075 23.967 18.3615C23.8768 18.3155 23.6499 18.1949 23.4629 18.0935C23.0556 17.8727 22.6635 17.663 22.0685 17.3479C21.8253 17.2191 21.6111 17.1026 21.5924 17.0891C21.5737 17.0755 21.2676 16.9126 20.9122 16.7271C20.5568 16.5416 20.2507 16.3786 20.232 16.3648C20.2133 16.351 19.9531 16.2111 19.6538 16.0538C19.3545 15.8965 19.0332 15.7256 18.9396 15.674C18.8461 15.6225 18.5553 15.467 18.2935 15.3285C18.0316 15.19 17.7102 15.0189 17.5793 14.9482C17.4483 14.8776 17.1805 14.7341 16.9841 14.6295C16.7877 14.5248 16.4739 14.3571 16.2869 14.2567C15.5534 13.8631 15.1114 13.6359 15.0792 13.6359C15.0571 13.6359 15.0455 15.2971 15.0455 18.4537ZM55.1597 16.0235C54.1948 16.1996 53.576 16.5073 52.9811 17.1068C52.5696 17.5213 52.3382 17.8548 52.0736 18.4141C51.8058 18.9802 51.669 19.465 51.5361 20.3187C51.4705 20.7399 51.4386 21.6835 51.4709 22.2469C51.5794 24.1384 52.1417 25.4725 53.2063 26.3641C53.8986 26.9438 54.8336 27.2432 55.9521 27.2432C57.188 27.2432 58.1431 26.8614 58.9026 26.0637C59.3285 25.6164 59.5915 25.2094 59.8029 24.6702C60.1859 23.6935 60.3113 22.934 60.3118 21.5893C60.3122 20.6373 60.2678 20.1828 60.107 19.4898C59.7614 18.0009 59.0226 16.9723 57.8804 16.3898C57.5382 16.2153 57.2846 16.139 56.7071 16.0367C56.3867 15.98 55.4425 15.9719 55.1597 16.0235ZM103.062 16.0356C102.048 16.2011 101.294 16.6235 100.639 17.3936C100.136 17.9846 99.7229 18.9801 99.5618 19.9906C99.474 20.541 99.4571 20.807 99.4571 21.631C99.4571 22.1139 99.4726 22.63 99.4915 22.778C99.6295 23.8546 99.7772 24.3849 100.143 25.116C100.55 25.9301 101.216 26.5636 102.031 26.9126C102.555 27.1364 103.146 27.2417 103.885 27.2426C104.16 27.2429 104.459 27.2292 104.548 27.2122C104.638 27.1952 104.819 27.1616 104.95 27.1377C105.432 27.0497 105.98 26.8223 106.394 26.5391C106.6 26.398 107.103 25.8891 107.274 25.6482C107.66 25.1059 107.979 24.2985 108.124 23.496C108.351 22.2455 108.338 20.7927 108.089 19.6107C108.013 19.2454 107.866 18.7477 107.819 18.6972C107.803 18.6791 107.789 18.6431 107.789 18.6172C107.789 18.5913 107.719 18.4273 107.633 18.2528C107.089 17.1516 106.243 16.4201 105.188 16.1389C104.609 15.9847 103.657 15.9384 103.062 16.0356ZM23.854 20.1869C23.6576 20.2905 23.3132 20.4733 23.0888 20.5931C22.8643 20.7129 22.5123 20.9003 22.3066 21.0096C22.1008 21.1188 21.81 21.2738 21.6604 21.3542C21.5107 21.4345 21.1741 21.6133 20.9122 21.7516C20.6503 21.8899 20.3404 22.0556 20.2235 22.1198C20.1066 22.1841 19.8159 22.3392 19.5773 22.4647C19.3388 22.5901 19.0672 22.7355 18.9736 22.7877C18.8801 22.8399 18.6199 22.9799 18.3955 23.0987C17.6706 23.4826 17.2083 23.7294 17.0676 23.8075C16.478 24.1348 15.6362 24.5564 15.4537 24.6158C14.7471 24.8458 13.9874 24.8454 13.2771 24.6148C13.0508 24.5414 12.6326 24.3431 12.2014 24.1048C12.0681 24.0311 11.7161 23.8425 11.4192 23.6856C11.1223 23.5287 10.8029 23.3582 10.7093 23.3066C10.6158 23.255 10.325 23.0996 10.0632 22.9611C9.80129 22.8227 9.4952 22.6595 9.38297 22.5984C9.27074 22.5373 8.99526 22.3896 8.7708 22.2702C8.54634 22.1508 8.22495 21.9794 8.0566 21.8894C7.64686 21.6702 6.51791 21.068 6.03304 20.8099C5.81793 20.6954 5.40039 20.472 5.10519 20.3134C4.81002 20.1549 4.55363 20.0251 4.53543 20.0251C4.51417 20.0251 4.50547 21.8835 4.51101 25.2446L4.51962 30.4642L4.63865 30.53C4.70412 30.5662 4.9949 30.7216 5.28483 30.8754C5.57476 31.0292 5.96502 31.2364 6.15207 31.336C6.33912 31.4355 6.69112 31.6219 6.93429 31.7501C7.34863 31.9685 7.54136 32.0709 8.3967 32.5273C8.58375 32.6271 8.9434 32.8173 9.19592 32.9501C9.44844 33.0829 9.76218 33.25 9.89311 33.3216C10.024 33.3931 10.3148 33.5489 10.5393 33.6678C10.7638 33.7867 11.1081 33.9691 11.3045 34.0732C11.5009 34.1773 11.7687 34.3208 11.8997 34.3922C12.3936 34.6613 13.402 35.1774 13.5491 35.2363C14.0131 35.422 14.5194 35.4485 14.9501 35.3097C15.2211 35.2224 15.7913 34.9503 16.4059 34.615C16.6023 34.5079 17.0002 34.2951 17.2902 34.1422C17.5801 33.9892 17.8326 33.8531 17.8513 33.8396C17.87 33.8261 18.0996 33.7019 18.3615 33.5635C18.8117 33.3256 18.9565 33.248 19.5688 32.9167C19.7091 32.8409 20.0381 32.6655 20.3 32.527C20.5619 32.3885 20.8527 32.2328 20.9462 32.181C21.0397 32.1293 21.2999 31.9897 21.5244 31.8708C21.7488 31.7519 22.0243 31.6042 22.1365 31.5426C22.2488 31.4809 22.5701 31.3099 22.8507 31.1626C23.1313 31.0153 23.3762 30.8832 23.3949 30.8692C23.4136 30.8552 23.6025 30.7537 23.8147 30.6437C24.0269 30.5337 24.2068 30.4268 24.2146 30.4062C24.2223 30.3856 24.2246 28.0354 24.2198 25.1836L24.2111 19.9985L23.854 20.1869ZM0.305638 30.4465C0.342879 31.3194 0.476944 31.9488 0.744803 32.5083C1.0986 33.2473 1.59735 33.7214 2.77949 34.4422C3.18651 34.6904 3.21896 34.7042 3.26086 34.646C3.35928 34.5093 3.93237 33.5254 3.92034 33.5138C3.91323 33.507 3.80797 33.4429 3.68638 33.3714C3.17944 33.0734 2.56839 32.6376 2.36056 32.4258C1.90249 31.9588 1.68421 31.2625 1.68071 30.2565L1.67983 30.0061H0.983345H0.286865L0.305638 30.4465Z" fill="#727272"/>
</svg>
