<svg width="192" height="41" viewBox="0 0 192 41" fill="none" xmlns="http://www.w3.org/2000/svg">
<path fill-rule="evenodd" clip-rule="evenodd" d="M26.6663 0.881921C26.6458 0.898483 26.0262 0.948446 25.2897 0.992888C21.6733 1.21165 17.1995 2.75925 14.807 4.61961C14.0164 5.23434 13.7847 5.65875 13.9293 6.22808C14.0541 6.71956 18.5032 11.0242 18.8862 11.0242C19.0618 11.0242 19.9665 10.6538 20.8969 10.2009C23.1625 9.09818 24.4729 8.77383 26.6289 8.78253C30.8647 8.79964 34.5257 10.7613 36.8661 14.2677C37.5079 15.2291 38.3708 16.1 39.0289 16.4504C39.8949 16.9116 41.5713 16.8732 42.5417 16.3701C44.1783 15.5214 44.8843 14.4228 44.7851 12.8792C44.717 11.8184 44.1989 10.763 42.8926 9.02295C39.6787 4.74203 35.1227 1.93776 30.1137 1.15713C28.9912 0.982122 26.7628 0.804354 26.6663 0.881921ZM11.0138 8.38586C10.1604 8.90136 8.24581 12.2682 7.47297 14.6127C6.73622 16.8475 6.68174 16.8949 4.74512 16.9837C3.69266 17.032 3.3757 17.1031 2.84849 17.4091C0.939455 18.5175 0.258712 20.62 1.18258 22.5547C1.86931 23.9925 2.91982 24.6249 4.92638 24.8083C5.60141 24.87 6.2855 24.9903 6.44642 25.0756C6.65402 25.1856 6.90842 25.7224 7.32375 26.9262C9.26609 32.5574 13.2799 36.9745 18.4681 39.1903C20.7635 40.1706 23.7503 40.8723 24.6625 40.6455C25.3601 40.472 25.4447 40.0396 25.4447 36.6488C25.4447 33.0353 25.4834 33.1443 24.022 32.6413C23.5078 32.4642 22.7342 32.1085 22.303 31.8507C20.1244 30.5483 16.6672 26.4644 16.6672 25.1931V24.8609L19.9065 24.7906C23.4452 24.714 23.99 24.6137 24.8999 23.8707C25.1663 23.6531 25.5625 23.1508 25.7802 22.7547C26.6274 21.2126 26.3312 19.3423 25.0367 18.0599C24.0125 17.0454 23.6084 16.9614 19.6727 16.9452C17.828 16.9376 16.1621 16.8873 15.9706 16.8332C15.4066 16.6739 15.5048 15.8332 16.2254 14.6516C17.1643 13.1124 17.1738 13.137 14.6818 10.6437C12.6815 8.6423 12.0531 8.12514 11.6236 8.12638C11.524 8.12666 11.2497 8.24342 11.0138 8.38586ZM82.4287 19.7884V30.7609H84.0285H85.6283L85.6656 27.3625L85.7028 23.9639L88.6863 27.3625L91.6698 30.7609H93.7642H95.8585L95.4326 30.3123C93.913 28.7122 89.1085 23.2668 89.1434 23.1842C89.1668 23.1289 90.5026 21.8144 92.1118 20.2631C93.721 18.7119 95.0585 17.3959 95.084 17.3389C95.1096 17.2817 94.2638 17.2351 93.2043 17.2351H91.2783L88.4557 20.0287L85.6331 22.8223V15.8191V8.81593H84.0309H82.4287V19.7884ZM49.747 10.103C49.708 10.2036 49.6943 10.8712 49.7165 11.5867L49.7569 12.8875L52.5086 12.9249L55.2603 12.9623V21.8616V30.7609H57.0018H58.7434V21.8587V12.9565H61.5299H64.3164V11.4383V9.92008H57.0672C51.1773 9.92008 49.8046 9.9543 49.747 10.103ZM169.786 14.6817V17.2351H168.596H167.407L167.447 18.6498L167.487 20.0644L168.636 20.0603L169.786 20.056V25.4085V30.7609H171.386H172.987L173.023 25.4127L173.06 20.0644L174.209 20.0686L175.359 20.0729V18.6539V17.2351H174.174H172.99V14.6817V12.1284H171.388H169.786V14.6817ZM70.5164 16.9173C69.6966 17.0251 68.3607 17.5362 67.5641 18.0469C63.7096 20.5169 63.0984 25.9228 66.31 29.1382C67.7898 30.6197 69.5081 31.313 71.7006 31.313C73.8652 31.313 75.5307 30.6502 77.0578 29.1809C79.9505 26.398 79.929 21.9074 77.0093 19.0151C75.286 17.3078 73.0469 16.5844 70.5164 16.9173ZM101.874 16.9818C100.167 17.3048 98.2196 18.5961 97.1748 20.0976C96.1535 21.5655 95.7481 23.6845 96.1385 25.5162C96.7166 28.2288 98.59 30.2471 101.284 31.0597C102.544 31.4397 104.942 31.372 106.101 30.924C109.252 29.7059 111.265 26.6239 110.931 23.5304C110.45 19.0856 106.365 16.1322 101.874 16.9818ZM118.614 17.0291C116.008 17.6809 114.019 19.6193 113.434 22.0786C113.162 23.2201 113.162 25.0976 113.433 26.1428C114.054 28.54 115.745 30.3231 118.086 31.0489C119.71 31.5526 122.09 31.4208 123.691 30.7385L124.366 30.4509V28.6001V26.7491L123.874 27.2359C123.067 28.0353 122.364 28.3184 121.022 28.3835C118.818 28.4906 117.416 27.6121 116.777 25.7258C116.506 24.924 116.462 23.3485 116.688 22.5271C116.898 21.7621 117.635 20.6986 118.226 20.306C119.813 19.2532 122.127 19.4413 123.88 20.7656L124.374 21.1389L124.335 19.36L124.296 17.5812L123.46 17.2469C122.401 16.8235 119.889 16.7106 118.614 17.0291ZM132.75 16.9781C132.203 17.1339 131.219 18.0691 130.88 18.7533L130.642 19.2363L130.638 18.2311L130.635 17.226L129.068 17.265L127.5 17.3041L127.492 23.86C127.488 27.4657 127.51 30.4936 127.542 30.5884C127.584 30.7123 128.027 30.7609 129.118 30.7609H130.635L130.647 27.69C130.669 22.1771 130.924 20.7838 132.068 19.9437C132.651 19.5153 134.166 19.4592 134.917 19.8384L135.482 20.1241L135.94 19.0257L136.397 17.9272L138.759 23.7473L141.121 29.5675L139.287 33.235C138.278 35.2523 137.455 36.9492 137.457 37.0062C137.46 37.0632 138.183 37.1098 139.063 37.1098H140.665L141.661 35.143C143.68 31.1581 150.419 17.4636 150.419 17.347C150.419 17.2808 149.654 17.244 148.718 17.2653L147.017 17.3041L145.434 20.6855C144.564 22.5453 143.614 24.6182 143.323 25.2919L142.794 26.5168L142.693 25.982C142.613 25.5626 140.198 18.5591 139.759 17.4766C139.674 17.2653 139.45 17.2349 137.97 17.2335C136.874 17.2326 136.037 17.1596 135.594 17.0265C134.835 16.7984 133.461 16.7749 132.75 16.9781ZM157.823 17.1056C157.132 17.3295 156.757 17.5658 156.117 18.1831L155.296 18.9738V18.1044V17.2351H153.693H152.091V27.1724V37.1098H153.66H155.23L155.226 33.2452C155.224 31.1197 155.246 29.3807 155.274 29.3807C155.303 29.3807 155.665 29.6868 156.078 30.061C157.117 31.0017 158.072 31.3403 159.684 31.3398C162.205 31.3388 163.977 30.2599 165.055 28.0695C166.146 25.8531 166.146 22.4832 165.055 20.1738C164.519 19.038 163.255 17.7682 162.172 17.277C161.051 16.7687 159.102 16.6918 157.823 17.1056ZM182.952 16.9621C180.546 17.4404 178.413 19.1657 177.497 21.374C177.053 22.4436 176.9 24.4363 177.165 25.6996C177.554 27.5578 179.18 29.6747 180.869 30.5225C183.343 31.7646 186.462 31.6003 188.672 30.1115C190.863 28.636 191.938 26.6689 191.938 24.136C191.938 22.0022 191.241 20.4163 189.64 18.9103C189.089 18.3911 188.297 17.8015 187.882 17.6001C186.509 16.935 184.437 16.6667 182.952 16.9621ZM158.063 19.6888C157.861 19.714 157.36 19.9333 156.95 20.1762C154.433 21.666 154.646 26.8116 157.281 28.1537C158.807 28.9313 160.867 28.4661 161.778 27.1379C162.51 26.0707 162.776 23.7286 162.333 22.2514C161.783 20.4154 160.139 19.429 158.063 19.6888ZM70.0842 20.05C68.2681 20.8877 67.2906 22.8515 67.6722 24.8958C67.8672 25.941 68.2267 26.6336 68.9208 27.3008C69.7244 28.0734 70.3487 28.3274 71.5991 28.3899C72.5509 28.4375 72.7727 28.4001 73.4327 28.0802C74.3059 27.657 75.0911 26.8515 75.5123 25.9471C75.7458 25.4457 75.8093 25.0433 75.8093 24.067C75.8093 22.6357 75.5513 21.9174 74.7028 20.9871C73.5553 19.7289 71.628 19.3378 70.0842 20.05ZM102.125 19.8787C101.239 20.1779 100.356 20.994 99.8443 21.988C99.4043 22.8424 99.3567 23.0457 99.3567 24.067C99.3567 25.0883 99.4043 25.2916 99.8443 26.146C100.688 27.7849 102.005 28.5157 103.876 28.3831C105.396 28.2755 106.594 27.4148 107.283 25.9373C107.698 25.0451 107.698 23.0889 107.283 22.1967C106.896 21.3658 106.22 20.6205 105.446 20.1713C104.929 19.8709 104.615 19.799 103.689 19.7685C103.068 19.7482 102.365 19.7977 102.125 19.8787ZM183.145 19.9099C182.124 20.2712 181.252 21.0866 180.766 22.1347C180.319 23.0959 180.308 25.0141 180.742 25.9471C181.129 26.7771 181.952 27.6704 182.664 28.0334C183.547 28.4837 185.133 28.5318 186.061 28.1365C187.008 27.7328 188.07 26.5958 188.389 25.643C188.69 24.7445 188.691 23.3919 188.391 22.4966C188.085 21.5842 187.064 20.4621 186.159 20.0447C185.356 19.6744 183.983 19.613 183.145 19.9099ZM39.0289 25.2835C38.2151 25.6757 37.8776 26.0218 36.8559 27.5108C35.0397 30.1583 32.5741 31.8881 29.541 32.6428C27.9191 33.0465 27.9525 32.9624 27.9525 36.6272C27.9525 40.1873 28.019 40.4824 28.8555 40.6378C29.5038 40.7583 31.9142 40.2687 33.5847 39.6772C37.9898 38.1176 42.2303 34.4936 44.3353 30.49C45.7044 27.8861 43.9773 25.2005 40.8128 25.0124C39.8651 24.9561 39.636 24.9909 39.0289 25.2835Z" fill="#727272"/>
</svg>
