<svg width="53" height="68" viewBox="0 0 53 68" fill="none" xmlns="http://www.w3.org/2000/svg">
<path fill-rule="evenodd" clip-rule="evenodd" d="M23.728 0.549478C23.4751 0.67898 23.0878 1.02724 22.8673 1.32325C22.4771 1.84698 22.4664 2.05105 22.4664 8.95223V16.043L33.5849 22.7183C39.6999 26.3898 44.9245 29.5432 45.1947 29.7261C45.4651 29.9089 45.9268 30.4667 46.2212 30.9659L46.7559 31.8731L46.8516 44.1924L46.9472 56.5117L49.5949 55.0626C51.4428 54.0512 52.3251 53.4567 52.5156 53.0943C52.747 52.6537 52.7805 49.9298 52.7365 35.072L52.6849 17.5688L52.2721 16.8059C52.0449 16.3863 51.6146 15.8174 51.3159 15.5418C51.0169 15.2662 47.5449 13.1735 43.6002 10.8915C39.6556 8.6095 33.9253 5.29471 30.8666 3.52535C25.1792 0.235545 24.7167 0.0427229 23.728 0.549478ZM13.0509 17.3725C12.711 17.5211 12.2595 17.9264 12.0474 18.2731C11.6785 18.8768 11.6618 19.2208 11.6612 26.2893L11.6605 33.6747L22.6099 40.1912C28.6321 43.7755 33.8039 46.9318 34.1028 47.2055C34.4016 47.4794 34.8319 48.0466 35.0591 48.4662C35.4548 49.1978 35.4758 49.5161 35.5675 56.2294L35.6631 63.23L38.5292 61.6246C40.1056 60.7418 41.504 59.8711 41.6372 59.6897C41.9556 59.2553 41.9887 35.327 41.6725 34.191C41.5532 33.7626 41.1357 33.1334 40.6694 32.6795C39.7701 31.8041 15.1268 17.3954 14.2153 17.2121C13.9139 17.1517 13.3915 17.2234 13.0509 17.3725ZM1.8108 34.7132C1.49523 34.8532 1.0649 35.1603 0.85452 35.3952C0.491325 35.8011 0.469139 36.1343 0.416544 42.0218C0.351517 49.3086 0.410042 49.6809 1.86072 51.2136C3.20773 52.6366 26.9173 67.0618 27.9092 67.0618C28.8318 67.0618 29.8434 66.4896 30.3079 65.7052C30.6702 65.0933 30.6904 64.7167 30.6904 58.5746C30.6904 52.2372 30.6807 52.0703 30.2607 51.2202C30.0241 50.7417 29.5938 50.1266 29.3044 49.8531C28.5686 49.1583 3.66158 34.7121 2.95833 34.5723C2.6376 34.5086 2.13154 34.5707 1.8108 34.7132Z" fill="#727272"/>
</svg>
