<svg width="128" height="56" viewBox="0 0 128 56" fill="none" xmlns="http://www.w3.org/2000/svg">
<path fill-rule="evenodd" clip-rule="evenodd" d="M8.56771 1.08801C5.40762 1.78699 2.63612 4.03805 1.20651 7.06697C0.112976 9.38417 0.191676 7.74074 0.191676 28.2422C0.191676 48.767 0.112589 47.1342 1.21876 49.4306C2.42531 51.9351 4.3555 53.786 6.8344 54.8156C8.81 55.6362 7.71892 55.5959 27.9931 55.5959C48.2482 55.5959 47.3231 55.6298 49.282 54.8162C52.3536 53.5404 54.7203 50.8017 55.6829 47.4093C55.9117 46.603 55.9242 45.5296 55.959 23.7266L55.9955 0.888542L32.6736 0.901538C13.7441 0.912193 9.20414 0.947278 8.56771 1.08801ZM19.6084 33.9569V35.3243H20.5115H21.4146V42.8655V50.4066L22.866 50.3699L24.3175 50.3331V41.4968V32.6604L21.9629 32.6249L19.6084 32.5896V33.9569ZM29.8603 36.0715C26.6003 40.4728 26.282 40.9547 25.9189 42.0378C25.5367 43.1781 25.5088 44.9223 25.8558 45.9799C26.7788 48.7927 29.2952 50.658 32.1674 50.658C35.9482 50.658 38.9607 47.714 38.9607 44.0194C38.9607 41.2848 37.0016 38.5847 34.4334 37.7796C34.0015 37.6442 33.3339 37.5334 32.95 37.5334C32.566 37.5334 32.2519 37.5034 32.2519 37.4669C32.2519 37.4302 33.0647 36.3471 34.0581 35.0599C35.0515 33.7726 35.8643 32.6916 35.8643 32.6574C35.8643 32.6234 35.0927 32.5954 34.1497 32.5954H32.4351L29.8603 36.0715ZM109.822 34.3146L109.016 34.554V36.1087V37.6633H107.661H106.306V38.443V39.2227H107.661H109.016V43.4223C109.016 48.154 109.08 48.6075 109.87 49.4884C110.486 50.1751 111.251 50.4142 112.819 50.4099C113.501 50.408 114.114 50.3718 114.182 50.3296C114.25 50.2874 114.305 49.9347 114.305 49.5458V48.8387H112.953C111.641 48.8387 111.588 48.8273 111.179 48.4597L110.757 48.0806L110.72 43.6517L110.683 39.2227H112.494H114.305V38.443V37.6633H112.503H110.7L110.664 35.8693L110.628 34.0753L109.822 34.3146ZM10.9999 37.0836C8.66202 37.7179 6.73325 39.6487 6.1203 41.9686C5.87298 42.9046 5.88214 44.7193 6.13862 45.5989C7.00779 48.5793 9.73091 50.6639 12.7447 50.656C13.7293 50.6534 14.9287 50.3554 15.8603 49.8817L16.6251 49.4929L16.6653 49.913L16.7056 50.3331L18.157 50.3699L19.6084 50.4066V43.8401V37.2735H18.1248H16.6411V37.654V38.0343L15.8992 37.65C15.4912 37.4385 14.8381 37.1803 14.4478 37.0761C13.5605 36.8393 11.8871 36.843 10.9999 37.0836ZM64.9283 37.4613C63.7108 37.7408 62.4227 38.4832 61.5976 39.3808C60.3884 40.6964 59.8611 42.0877 59.8611 43.9634C59.8611 47.03 61.635 49.4586 64.5353 50.3626C65.5802 50.6882 67.4567 50.6525 68.5296 50.2866C70.02 49.7782 71.3975 48.6959 71.9698 47.5833C72.1015 47.3274 72.0545 47.2679 71.4385 46.9107L70.7628 46.5189L70.5752 46.8017C70.1699 47.4127 69.2069 48.2371 68.5188 48.5621C67.8817 48.863 67.6341 48.9037 66.4408 48.9037C65.2031 48.9037 65.0196 48.8707 64.3138 48.5216C63.3299 48.0351 62.4651 47.1641 61.9821 46.1731C61.6322 45.4554 61.6028 45.2844 61.6028 43.9657C61.6028 42.6858 61.639 42.4584 61.9496 41.791C62.3904 40.8436 63.3281 39.8969 64.2998 39.418C64.8936 39.1254 65.288 39.0321 66.1161 38.9883C67.9179 38.893 69.3829 39.5376 70.2521 40.8079L70.6595 41.4035L71.3224 41.018L71.9851 40.6326L71.7795 40.2321C71.48 39.6489 70.4669 38.5996 69.8538 38.2377C68.4708 37.4214 66.4735 37.1065 64.9283 37.4613ZM99.2106 37.3606C98.5837 37.4609 97.3332 37.9631 96.8084 38.3254C96.516 38.5271 96.008 38.9933 95.6795 39.3613L95.0822 40.0304V38.8469V37.6633H94.2436H93.405V46.5647V55.466H94.2436H95.0822V51.6901V47.9143L95.8022 48.6977C97.9376 51.0209 101.507 51.2561 104.155 49.2481C105.647 48.1167 106.549 46.3548 106.66 44.3556C106.736 42.9865 106.529 41.9991 105.906 40.755C104.741 38.4309 101.809 36.9445 99.2106 37.3606ZM119.777 37.4663C118.6 37.7242 117.452 38.3679 116.552 39.2749C115.278 40.5578 114.648 42.1109 114.648 43.9657C114.648 45.8197 115.278 47.3737 116.55 48.6547C118.59 50.7096 121.675 51.198 124.304 49.8828C128.959 47.5547 129.06 40.6321 124.477 38.1194C123.695 37.6909 122.057 37.2706 121.219 37.2838C120.858 37.2895 120.209 37.3716 119.777 37.4663ZM39.9928 38.7006V39.9977L43.0907 40.0325L46.1887 40.0673L43.0918 43.8358L39.995 47.6042L39.9939 49.0012L39.9928 50.3981H44.8953H49.7979V49.0336V47.6692H46.7016C44.9986 47.6692 43.6052 47.6406 43.6052 47.6058C43.6052 47.5708 44.9986 45.8511 46.7016 43.7842L49.7979 40.026V38.7147V37.4034H44.8953H39.9928V38.7006ZM77.8888 37.5448C77.0692 37.7394 76.4297 38.1432 75.8083 38.8586L75.2139 39.5431V38.6032V37.6633H74.3753H73.5367V43.9657V50.2681H74.3671H75.1977L75.238 46.0774C75.2771 42.0226 75.288 41.8655 75.5752 41.2369C76.1428 39.995 77.0944 39.2848 78.4123 39.1198L79.1488 39.0276L79.1872 38.2155L79.2256 37.4034L78.8002 37.4164C78.5662 37.4237 78.1562 37.4814 77.8888 37.5448ZM80.1164 37.7357C80.1164 37.7821 81.3703 40.6535 82.9029 44.1167L85.6893 50.4134L85.4027 51.088C84.6984 52.7452 83.7352 53.6479 82.4506 53.8548L81.9226 53.9399V54.7197V55.4995L82.6 55.4105C84.0118 55.2252 85.3841 54.2862 86.268 52.901C86.6019 52.3775 89.2987 45.6446 92.254 37.9557C92.3638 37.6701 92.3463 37.6633 91.4881 37.6633H90.6096L88.6351 42.8287C87.5492 45.6697 86.6235 48.0367 86.578 48.0887C86.5326 48.1408 85.448 45.831 84.1677 42.9558L81.8402 37.7283L80.9784 37.6898C80.5042 37.6688 80.1164 37.6893 80.1164 37.7357ZM98.4124 39.2057C97.0123 39.7742 95.9382 40.8084 95.4525 42.0553C95.0458 43.1002 95.0467 44.8336 95.4547 45.8821C95.8593 46.9215 96.823 47.9464 97.8956 48.4782C98.7001 48.8772 98.8383 48.9037 100.111 48.9037C101.342 48.9037 101.538 48.8691 102.216 48.534C103.171 48.0623 104.116 47.1098 104.585 46.1484C104.921 45.4592 104.952 45.2735 104.952 43.9657C104.952 42.658 104.921 42.4723 104.585 41.783C104.117 40.8222 103.171 39.8696 102.221 39.4014C101.234 38.915 99.3651 38.819 98.4124 39.2057ZM119.761 39.1439C118.378 39.5979 117.375 40.5173 116.714 41.9356C116.358 42.6989 116.313 42.9285 116.313 43.9657C116.313 45.0052 116.358 45.2318 116.717 46.0033C117.257 47.1615 118.015 47.9627 119.06 48.4814C119.858 48.8767 119.999 48.9037 121.269 48.9037C122.51 48.9037 122.693 48.8709 123.399 48.5216C124.383 48.0351 125.248 47.1641 125.731 46.1731C126.081 45.4554 126.11 45.2844 126.11 43.9657C126.11 42.647 126.081 42.476 125.731 41.7583C125.249 40.7687 124.383 39.8958 123.406 39.4146C122.762 39.0973 122.456 39.0319 121.473 39.0015C120.738 38.9789 120.103 39.0317 119.761 39.1439ZM11.6962 39.9215C9.90444 40.4272 8.62396 42.2971 8.81219 44.1336C9.07435 46.6917 11.6021 48.2968 14.0689 47.4716C14.9969 47.1611 16.1178 46.054 16.4249 45.1446C16.716 44.282 16.6996 43.1588 16.3834 42.3074C15.719 40.5187 13.5295 39.4041 11.6962 39.9215ZM31.2843 40.3063C30.427 40.5923 29.9784 40.8783 29.4954 41.4466C27.8934 43.3317 28.4996 46.5605 30.6517 47.6053C31.283 47.9117 32.6037 48.0091 33.3341 47.8032C34.2081 47.5567 35.0916 46.8025 35.5394 45.9204C35.8789 45.2519 35.9284 45.0192 35.9256 44.1049C35.923 43.2909 35.8548 42.9041 35.6206 42.3769C35.2791 41.6077 34.4404 40.7622 33.717 40.4577C33.0344 40.1704 31.9026 40.1 31.2843 40.3063Z" fill="#727272"/>
</svg>
