<svg width="132" height="65" viewBox="0 0 132 65" fill="none" xmlns="http://www.w3.org/2000/svg">
<path fill-rule="evenodd" clip-rule="evenodd" d="M62.6686 0.589363C57.6779 1.62564 52.8243 5.40397 50.5443 10.0273C49.4049 12.3377 49.299 12.9602 49.299 17.344C49.299 21.6067 49.4251 22.3999 50.4414 24.5313C54.1702 32.3506 63.0113 36.264 71.2527 33.7432C78.6258 31.4881 83.3201 25.1115 83.3258 17.344C83.3306 10.0805 79.1707 4.02967 72.41 1.46534C69.6687 0.426016 65.3337 0.0361607 62.6686 0.589363ZM61.942 6.04342C59.3897 6.98125 56.6795 9.44539 55.3275 12.0568C53.936 14.7439 53.7285 19.3551 54.8797 22.0005C55.9499 24.4603 58.8995 27.367 61.4202 28.4459C64.1926 29.6334 68.897 29.5393 71.5793 28.2434C74.739 26.7166 77.4195 23.3016 78.1684 19.8487L78.4757 18.433H75.3859H72.2962L71.4532 20.0664C70.3778 22.1516 68.5215 23.2245 65.989 23.2245C61.1826 23.2245 58.4294 17.0778 61.6496 13.5369C64.5139 10.3871 69.6398 11.0693 71.4029 14.8341C72.0533 16.2232 72.0892 16.2363 75.2411 16.2454L78.4227 16.255L78.1373 15.0571C77.2904 11.5031 75.1798 8.68659 71.9531 6.80483C69.5085 5.37914 64.7367 5.01585 61.942 6.04342ZM39.263 42.6393C37.4995 44.3947 39.4328 47.2287 41.7868 46.3379C42.4543 46.0853 43.0456 45.4402 43.211 44.7841C43.7643 42.5896 40.8851 41.0254 39.263 42.6393ZM63.962 53.2804V64.6058H65.7128C67.1292 64.6058 67.4636 64.4507 67.4636 63.7938C67.4636 63.0368 67.6041 63.0538 69.5426 64.0439C74.4142 66.5328 79.7708 63.4031 80.4532 57.6694C80.9509 53.4895 78.382 49.5382 74.4891 48.495C72.5019 47.9622 70.9262 48.2314 68.8861 49.4515L67.4636 50.3022V46.1288V41.955H65.7128H63.962V53.2804ZM7.16427 48.481C3.18864 49.4162 0.740144 52.5921 0.772534 56.7708C0.798796 60.1449 2.23927 62.5781 5.09132 64.0674C6.89202 65.0078 11.2712 64.9952 13.0566 64.0452C14.5741 63.2376 16.4098 61.0535 16.8878 59.4876C17.1644 58.5811 17.051 58.5075 15.3773 58.5075C13.876 58.5075 13.3214 58.7675 12.123 60.0321C10.0986 62.1682 8.02172 62.1643 5.86824 60.0212C4.42251 58.5824 4.33891 58.3472 4.53851 56.2799C4.83351 53.2259 6.31207 51.7558 9.0884 51.7558C10.8182 51.7558 11.2607 51.9518 12.2836 53.1715C13.2816 54.3606 13.7687 54.5872 15.3291 54.5872C17.0528 54.5872 17.1653 54.5162 16.8878 53.6071C15.7782 49.9716 11.1648 47.5397 7.16427 48.481ZM25.1634 48.4701C18.7773 49.9803 16.4842 57.8667 21.0963 62.4566C24.3112 65.656 29.4139 65.7152 32.8857 62.5933C34.9508 60.7369 35.6756 58.7401 35.4156 55.623C35.016 50.8228 30.003 47.3254 25.1634 48.4701ZM52.7463 48.5276C51.9939 48.7437 51.133 49.2159 50.8323 49.5761C50.0742 50.4856 49.5179 50.3941 49.5179 49.36C49.5179 48.6339 49.2259 48.4889 47.7671 48.4889H46.0163V56.5473V64.6058H47.7671H49.5179V60.097C49.5179 54.835 50.0133 53.0626 51.7322 52.1783C53.4786 51.2793 54.5348 51.3781 55.928 52.5708C57.1036 53.5775 57.1387 53.7412 57.3181 59.1047L57.5019 64.6058H59.2002H60.8981L60.8972 58.8342C60.8968 52.5307 60.4192 50.8001 58.2719 49.3222C56.88 48.3638 54.5033 48.0219 52.7463 48.5276ZM87.8166 48.4483C85.1256 49.1139 83.4983 50.4856 82.9888 52.5181C82.6986 53.6746 82.748 53.716 84.4363 53.716C85.7922 53.716 86.3363 53.4847 86.8642 52.6827C87.663 51.4696 89.4365 51.0262 91.1344 51.6155C93.9033 52.576 92.8379 54.3955 89.1297 55.0397C84.0655 55.9196 82.3454 57.2639 82.3454 60.3422C82.3454 63.5791 85.9008 65.6469 89.7101 64.6263C90.6385 64.3775 91.7367 63.8017 92.1503 63.3465C92.8865 62.5372 92.925 62.5419 93.9505 63.5625C94.6622 64.2708 95.4974 64.6058 96.5509 64.6058C98.0225 64.6058 98.1026 64.5296 98.1026 63.1322C98.1026 62.0245 97.885 61.6015 97.2272 61.4303C96.4244 61.2217 96.3518 60.8362 96.3518 56.7843C96.3518 51.8499 95.8055 50.2086 93.8275 49.2011C92.2453 48.3952 89.4479 48.045 87.8166 48.4483ZM104.668 48.4597C101.593 49.0691 99.8534 50.8977 99.8534 53.52C99.8534 55.3921 102.315 57.4991 104.913 57.8502C108.757 58.3694 109.92 58.8873 109.92 60.0765C109.92 62.1469 105.294 62.6112 103.723 60.6985C103.207 60.0717 102.474 59.8143 101.206 59.8143C99.1627 59.8143 99.1014 59.9489 100.274 61.862C101.541 63.9311 103.506 64.8018 106.857 64.7796C111.476 64.7495 113.542 63.1871 113.542 59.7228C113.542 56.9254 111.525 55.4213 106.955 54.8111C103.395 54.3354 102.375 52.8043 104.825 51.6155C106.303 50.899 108.395 51.3067 109.214 52.471C109.687 53.1427 110.224 53.3048 111.624 53.1989L113.425 53.0626L112.657 51.5528C111.396 49.0708 108.073 47.7845 104.668 48.4597ZM121.895 48.4701C117.999 49.3914 115.554 52.4793 115.517 56.5247C115.479 60.7708 117.8 63.6845 121.983 64.6424C124.97 65.3258 127.547 64.591 129.711 62.4374C131.863 60.2952 131.886 59.3787 129.789 59.3787C128.745 59.3787 127.772 59.7467 126.911 60.4677C125.152 61.9404 122.704 61.9426 120.949 60.4729C120.237 59.8766 119.551 58.9945 119.424 58.5127C119.201 57.6642 119.397 57.6363 125.561 57.6363H131.928L131.665 55.4283C131.52 54.2139 130.98 52.5416 130.465 51.7122C128.94 49.2564 124.951 47.7475 121.895 48.4701ZM36.8246 50.2312C36.8246 51.7994 36.934 51.9736 37.9188 51.9736H39.0131V58.2897V64.6058H40.9827H42.9524V56.5473V48.4889H39.8885H36.8246V50.2312ZM24.7528 52.3369C21.0752 54.6298 22.0167 60.6053 26.1784 61.382C29.2904 61.963 31.7179 59.7907 31.7179 56.424C31.7179 52.8221 27.7292 50.4813 24.7528 52.3369ZM69.7895 52.3652C68.0124 53.472 67.4636 54.514 67.4636 56.7799C67.4636 59.2711 69.6626 61.5566 72.0594 61.5566C73.3178 61.5566 74.0111 61.226 75.1671 60.0756C76.4268 58.822 76.6553 58.2879 76.6553 56.5979C76.6553 52.749 72.895 50.4307 69.7895 52.3652ZM120.897 52.6658C118.554 54.6277 119.025 55.0227 123.708 55.0227C125.995 55.0227 127.866 54.9339 127.866 54.8254C127.866 54.717 127.647 54.1507 127.38 53.5666C126.366 51.3507 123.022 50.8859 120.897 52.6658ZM91.9748 57.1724C91.6137 57.368 90.4052 57.659 89.2895 57.8193C85.7104 58.3328 84.7833 60.6968 87.7483 61.7483C90.0905 62.579 93.1723 60.0173 92.7604 57.5819C92.6703 57.0469 92.4339 56.9237 91.9748 57.1724Z" fill="#727272"/>
</svg>
