<svg width="118" height="31" viewBox="0 0 118 31" fill="none" xmlns="http://www.w3.org/2000/svg">
<path fill-rule="evenodd" clip-rule="evenodd" d="M13.7285 2.13659V3.85942H11.1839H8.63927V6.44368V9.02793H11.1839H13.7285V10.1653V11.3026L11.2546 11.3856L8.78064 11.4686L8.69893 13.9811L8.61722 16.4935H11.1729H13.7285L13.7269 18.4317C13.724 21.9162 12.9242 23.6157 10.9798 24.2673C9.40634 24.7947 7.73479 24.3775 6.30725 23.1015L5.05755 21.9842L2.87848 24.2101L0.699707 26.436L1.85695 27.7712C2.57963 28.6051 3.72302 29.461 4.90204 30.0502C6.68979 30.9441 6.95443 30.9941 9.90565 30.9941C12.8097 30.9941 13.1467 30.9335 14.8595 30.1013C18.9575 28.1103 20.5143 25.1379 20.5143 19.3046V16.4935H21.5038H22.4934V13.9093V11.325H21.5038C20.5377 11.325 20.5143 11.2978 20.5143 10.1765C20.5143 9.0552 20.5377 9.02793 21.5038 9.02793H22.4934V6.44368V3.85942H21.5038H20.5143V2.13659V0.413757H17.1214H13.7285V2.13659ZM101.896 5.54292C99.7643 6.25675 98.6152 7.01135 97.0158 8.74797C92.8638 13.2558 92.8683 20.386 97.0259 25.0824C99.473 27.8464 103.789 29.2761 107.654 28.6031C111.608 27.9142 114.665 25.6381 116.376 22.1077C117.176 20.4569 117.341 19.7689 117.44 17.6504C117.695 12.2387 115.415 8.28768 110.759 6.06925C109.125 5.29139 108.506 5.15844 106.184 5.08838C104.153 5.02693 103.107 5.13777 101.896 5.54292ZM29.5791 11.6776C28.2669 15.1951 26.3265 20.3245 25.2674 23.0765C24.2082 25.8284 23.3416 28.1864 23.3416 28.3168C23.3416 28.4468 24.6035 28.5534 26.1458 28.5534H28.9503L29.5619 26.687L30.1734 24.8206H34.7611H39.3488L39.9135 26.6152L40.4781 28.4098L43.3609 28.4916C44.9462 28.5367 46.2417 28.5367 46.2397 28.4916C46.2375 28.4466 44.286 23.2413 41.9028 16.9242L37.5699 5.43869L34.7674 5.36059L31.9651 5.28277L29.5791 11.6776ZM47.6571 16.9242V28.5534H50.3431H53.0291L53.0387 22.021L53.0481 15.4886L55.6668 21.9492L58.2852 28.4098H60.2437H62.2023L64.7548 21.9767L67.3074 15.5437L67.3834 22.0485L67.4595 28.5534H70.1432H72.8273L72.7532 16.996L72.6794 5.43869L69.8305 5.35743L66.9819 5.27617L65.3497 9.2338C61.0628 19.6294 60.2881 21.3939 60.1049 21.1771C59.9966 21.049 58.4619 17.4233 56.6945 13.1197L53.4809 5.29512H50.569H47.6571V16.9242ZM75.5755 16.7089C75.4895 22.9866 75.5229 28.2338 75.6496 28.3696C75.7762 28.5051 78.2767 28.5646 81.2068 28.5014C87.1369 28.3736 88.3759 28.0563 90.2914 26.1739C92.9166 23.5939 92.4094 18.1991 89.3567 16.2331L88.1067 15.428L88.8314 14.7403C90.9573 12.7237 91.0862 9.65159 89.1393 7.39985C87.5234 5.53086 86.6455 5.30862 80.85 5.30144L75.7316 5.29512L75.5755 16.7089ZM80.7374 11.8993V13.9093H82.5212C84.5679 13.9093 85.1812 13.5653 85.4303 12.2772C85.5734 11.5378 85.4685 11.2222 84.8815 10.6261C84.2626 9.99759 83.9047 9.88934 82.4466 9.88934H80.7374V11.8993ZM103.758 10.2945C100.948 11.1878 99.3981 13.5153 99.3981 16.8401C99.3981 21.2198 102.302 24.0134 106.435 23.6103C109.588 23.3025 111.78 20.9267 112.049 17.5264C112.326 14.0262 110.632 11.1901 107.738 10.3054C106.112 9.80837 105.294 9.80607 103.758 10.2945ZM33.4215 15.6778C32.6946 17.7845 32.1014 19.6055 32.1031 19.7239C32.1051 19.8422 33.3237 19.9392 34.8115 19.9392C37.2656 19.9392 37.502 19.8924 37.3586 19.4336C37.2718 19.1556 36.6478 17.3349 35.9718 15.3875L34.7433 11.8471L33.4215 15.6778ZM80.7374 20.9442V23.672H82.9612C85.9203 23.672 86.6749 23.1399 86.6749 21.0539C86.6749 19.9205 86.5316 19.4804 85.9808 18.9213C85.3591 18.2896 85.0503 18.2164 83.012 18.2164H80.7374V20.9442Z" fill="#727272"/>
</svg>
